<svg width="16" height="18" viewBox="0 0 16 18" fill="none" xmlns="http://www.w3.org/2000/svg">
<path d="M13.9909 15.6797V6.5H2.39525V15.6797H13.9909ZM13.9909 2.32031C14.4319 2.32031 14.821 2.48958 15.1583 2.82812C15.4955 3.16667 15.6641 3.55729 15.6641 4V15.6797C15.6641 16.1224 15.4955 16.513 15.1583 16.8516C14.821 17.1641 14.4319 17.3203 13.9909 17.3203H2.39525C1.92831 17.3203 1.52622 17.1641 1.18899 16.8516C0.877693 16.513 0.722046 16.1224 0.722046 15.6797V4C0.722046 3.55729 0.877693 3.16667 1.18899 2.82812C1.52622 2.48958 1.92831 2.32031 2.39525 2.32031H3.21239V0.679688H4.88559V2.32031H11.5006V0.679688H13.1738V2.32031H13.9909ZM12.3566 8.17969V9.82031H10.6834V8.17969H12.3566ZM9.01023 8.17969V9.82031H7.37594V8.17969H9.01023ZM5.70274 8.17969V9.82031H4.02954V8.17969H5.70274Z" fill="white"/>
</svg>
