<svg width="19" height="14" viewBox="0 0 19 14" fill="none" xmlns="http://www.w3.org/2000/svg">
<path d="M7.92849 5.24219C8.42137 4.7474 9.00505 4.5 9.67951 4.5C10.354 4.5 10.9377 4.7474 11.4305 5.24219C11.9234 5.73698 12.1699 6.32292 12.1699 7C12.1699 7.67708 11.9234 8.26302 11.4305 8.75781C10.9377 9.2526 10.354 9.5 9.67951 9.5C9.00505 9.5 8.42137 9.2526 7.92849 8.75781C7.43561 8.26302 7.18917 7.67708 7.18917 7C7.18917 6.32292 7.43561 5.73698 7.92849 5.24219ZM6.72223 9.96875C7.55234 10.776 8.53811 11.1797 9.67951 11.1797C10.8209 11.1797 11.7937 10.776 12.5979 9.96875C13.428 9.13542 13.8431 8.14583 13.8431 7C13.8431 5.85417 13.428 4.8776 12.5979 4.07031C11.7937 3.23698 10.8209 2.82031 9.67951 2.82031C8.53811 2.82031 7.55234 3.23698 6.72223 4.07031C5.91806 4.8776 5.51597 5.85417 5.51597 7C5.51597 8.14583 5.91806 9.13542 6.72223 9.96875ZM4.11515 2.46875C5.77538 1.32292 7.63017 0.75 9.67951 0.75C11.7289 0.75 13.5836 1.32292 15.2439 2.46875C16.9041 3.61458 18.0974 5.125 18.8237 7C18.0974 8.875 16.9041 10.3854 15.2439 11.5312C13.5836 12.6771 11.7289 13.25 9.67951 13.25C7.63017 13.25 5.77538 12.6771 4.11515 11.5312C2.45492 10.3854 1.26163 8.875 0.535278 7C1.26163 5.125 2.45492 3.61458 4.11515 2.46875Z" fill="white"/>
</svg>
