<svg width="58" height="56" viewBox="0 0 58 56" fill="none" xmlns="http://www.w3.org/2000/svg">
<circle cx="39.5" cy="18.5" r="18.5" fill="#295BA0"/>
<g clip-path="url(#clip0)">
<path d="M49.8688 16.553C49.5995 16.0861 49.0021 15.9259 48.5348 16.1956L41.0161 20.5367L38.0959 15.4784L45.6051 11.1426C46.0724 10.8729 46.2323 10.2759 45.9626 9.80861C45.6929 9.34169 45.0959 9.18147 44.6286 9.45117L37.1193 13.787L36.6223 12.9264C36.3526 12.4594 35.7556 12.2992 35.2883 12.5689L31.9054 14.522C31.6811 14.6514 31.5175 14.8646 31.4503 15.1149C31.3832 15.3651 31.4183 15.6317 31.548 15.8561L31.5567 15.8709L25 19.6563L18.4433 15.8709L18.4521 15.8561C18.5814 15.6317 18.6169 15.3651 18.5498 15.1149C18.4826 14.8646 18.319 14.6514 18.0947 14.522L14.7118 12.5689C14.2445 12.2992 13.6475 12.4591 13.3778 12.9264L12.8807 13.787L9.17742 11.6488C8.71012 11.3791 8.11274 11.5393 7.84342 12.0063C7.57372 12.4732 7.73355 13.0706 8.20086 13.3403L11.9042 15.4784L8.98363 20.5367L1.46486 16.1956C0.997937 15.9259 0.400936 16.0861 0.130855 16.553C-0.138844 17.0199 0.0213733 17.6173 0.488293 17.887L8.00707 22.2281L7.51841 23.075C7.24871 23.5423 7.40854 24.1393 7.87584 24.409L11.2587 26.3621C11.4083 26.4487 11.5769 26.493 11.747 26.493C11.8313 26.493 11.9164 26.4819 11.9995 26.4598C12.2498 26.3926 12.463 26.229 12.5927 26.0047L12.5935 26.0035L19.1407 29.7835V37.3462C18.6013 37.3462 18.1641 37.7833 18.1641 38.3227V42.229C18.1641 42.768 18.6013 43.2055 19.1407 43.2055H20.1172V51.8958C20.1172 52.4348 20.5544 52.8724 21.0938 52.8724C21.6332 52.8724 22.0703 52.4348 22.0703 51.8958V43.2055H27.9297V51.8958C27.9297 52.4348 28.3669 52.8724 28.9063 52.8724C29.4453 52.8724 29.8829 52.4348 29.8829 51.8958V43.2055H30.8594C31.3988 43.2055 31.836 42.768 31.836 42.229V38.3227C31.836 37.7833 31.3988 37.3462 30.8594 37.3462V29.7835L37.4066 26.0035L37.4074 26.0047C37.5886 26.3179 37.9166 26.4933 38.2542 26.4933C38.4198 26.4933 38.5876 26.451 38.7414 26.3621L42.1242 24.409C42.3485 24.2797 42.5126 24.0664 42.5793 23.8162C42.6465 23.5659 42.6114 23.2993 42.4817 23.075L41.993 22.2281L49.5118 17.887C49.9787 17.6173 50.1385 17.0199 49.8688 16.553ZM9.69813 23.2058L14.5806 14.7486L16.2724 15.7252L16.264 15.7397C16.2636 15.7397 16.2636 15.7397 16.2636 15.7401L16.2632 15.7405L11.3892 24.1824L9.69813 23.2058ZM29.8829 41.2524H20.1172V39.2993H29.8829V41.2524ZM29.3946 28.374C29.0924 28.5483 28.9063 28.871 28.9063 29.2197V37.3462H25.9766V33.9286C25.9766 33.3896 25.5394 32.952 25 32.952C24.4606 32.952 24.0235 33.3896 24.0235 33.9286V37.3462H21.0938V29.2197C21.0938 28.871 20.9076 28.5483 20.6055 28.374L13.57 24.3121L17.4668 17.5624L24.5118 21.6296C24.6628 21.717 24.8314 21.7604 25 21.7604C25.1686 21.7604 25.3373 21.717 25.4883 21.6296L32.5333 17.5624L36.43 24.3121L29.3946 28.374ZM38.6105 24.1824L33.7368 15.7405C33.7365 15.7405 33.7365 15.7401 33.7365 15.7401L33.7361 15.7397L33.7277 15.7252L35.4191 14.7486L35.9158 15.6092L39.8125 22.3582C39.8125 22.3586 39.8125 22.359 39.8129 22.359C39.8129 22.3594 39.8133 22.3594 39.8133 22.3597L40.3019 23.2062L38.6105 24.1824Z" fill="black"/>
<path d="M4.34188 11.1097C4.50858 11.2207 4.69665 11.2737 4.88281 11.2737C5.19828 11.2737 5.50803 11.1212 5.6961 10.8389C5.99517 10.3903 5.87386 9.78372 5.42526 9.48465L5.42487 9.48427C4.97627 9.1852 4.36973 9.3065 4.07066 9.75549C3.77158 10.2041 3.89327 10.8106 4.34188 11.1097Z" fill="black"/>
<path d="M25 28.5574C24.4606 28.5574 24.0234 28.9954 24.0234 29.5344C24.0234 30.0738 24.4606 30.5109 25 30.5109C25.5394 30.5109 25.9766 30.0738 25.9766 29.5344V29.5336C25.9766 28.9946 25.5394 28.5574 25 28.5574Z" fill="black"/>
</g>
<defs>
<clipPath id="clip0">
<rect width="50" height="50" fill="white" transform="translate(0 6)"/>
</clipPath>
</defs>
</svg>
