<svg width="63" height="56" viewBox="0 0 63 56" fill="none" xmlns="http://www.w3.org/2000/svg">
<circle cx="18.5" cy="18.5" r="18.5" fill="#295BA0"/>
<g clip-path="url(#clip0)">
<path d="M57.5312 31.3902H56.5547V8.92969C56.5547 7.31416 55.2405 6 53.625 6H31.1641C30.6247 6 30.1875 6.43716 30.1875 6.97656C30.1875 7.51596 30.6247 7.95312 31.1641 7.95312H53.625C54.1633 7.95312 54.6016 8.39105 54.6016 8.92969V37.2496H21.3984V8.92969C21.3984 8.39105 21.8364 7.95312 22.375 7.95312C22.9144 7.95312 23.3516 7.51596 23.3516 6.97656C23.3516 6.43716 22.9144 6 22.375 6C20.7595 6 19.4453 7.31416 19.4453 8.92969V9.90625H18.4688C16.8532 9.90625 15.5391 11.2204 15.5391 12.8359V16.7422C15.5391 18.3577 16.8532 19.6719 18.4688 19.6719H19.4453V44.0859C19.4453 45.3589 20.2617 46.4442 21.3984 46.8474V49.9453C21.3984 50.4843 21.8356 50.9219 22.375 50.9219H23.3516V55.0234C23.3516 55.5628 23.7887 56 24.3281 56C24.8675 56 25.3047 55.5628 25.3047 55.0234V50.9219H27.2574V55.0234C27.2574 55.5628 27.695 56 28.234 56C28.7734 56 29.2106 55.5628 29.2106 55.0234V50.9219H30.1875C30.7269 50.9219 31.1641 50.4843 31.1641 49.9453V47.0156H31.8026C32.2055 48.1524 33.2919 48.9688 34.5649 48.9688H41.4351C42.7081 48.9688 43.7941 48.1524 44.1974 47.0156H44.8359V49.9453C44.8359 50.4843 45.2731 50.9219 45.8125 50.9219H46.7891V55.0234C46.7891 55.5628 47.2262 56 47.7656 56C48.305 56 48.7422 55.5628 48.7422 55.0234V50.9219H50.6953V55.0234C50.6953 55.5628 51.1325 56 51.6719 56C52.2113 56 52.6484 55.5628 52.6484 55.0234V50.9219H53.625C54.1644 50.9219 54.6016 50.4843 54.6016 49.9453V46.8474C55.738 46.4442 56.5547 45.3589 56.5547 44.0859V39.2027H57.5312C59.1468 39.2027 60.4609 37.8886 60.4609 36.2731V34.3199C60.4609 32.7048 59.1468 31.3902 57.5312 31.3902ZM18.4688 17.7188C17.9301 17.7188 17.4922 17.2808 17.4922 16.7422V12.8359C17.4922 12.2973 17.9301 11.8594 18.4688 11.8594H19.4453V17.7188H18.4688ZM29.2109 48.9688H23.3516V47.0156H29.2109V48.9688ZM46.7891 48.9688V47.0156H52.6484V48.9688H46.7891ZM54.6016 41.1559H50.2074C49.668 41.1559 49.2309 41.5934 49.2309 42.1324C49.2309 42.6718 49.668 43.109 50.2074 43.109H54.6016V44.0859C54.6016 44.6242 54.1633 45.0625 53.625 45.0625H43.3883C42.8489 45.0625 42.4117 45.4997 42.4117 46.0391C42.4117 46.5773 41.9734 47.0156 41.4351 47.0156H34.5649C34.0266 47.0156 33.5883 46.5773 33.5883 46.0391C33.5883 45.4997 33.1511 45.0625 32.6117 45.0625H22.375C21.8364 45.0625 21.3984 44.6242 21.3984 44.0859V39.2027H54.6016V41.1559ZM58.5078 36.2731C58.5078 36.8117 58.0695 37.2496 57.5312 37.2496H56.5547V33.3434H57.5312C58.0695 33.3434 58.5078 33.7817 58.5078 34.3199V36.2731Z" fill="black"/>
<path d="M38.2513 11.4363C37.7306 11.2967 37.1947 11.606 37.0554 12.1271C36.6549 13.6213 36.8616 14.6017 37.044 15.4665C37.2088 16.247 37.3389 16.8635 37.0554 17.9217C36.9158 18.4427 37.2248 18.9779 37.7459 19.1176C37.8306 19.1405 37.9156 19.1511 37.9992 19.1511C38.4302 19.1511 38.8251 18.8635 38.9418 18.4271C39.3465 16.9176 39.1386 15.9323 38.9551 15.0633C38.7915 14.2882 38.6626 13.6755 38.9418 12.6326C39.0814 12.1115 38.7724 11.5763 38.2513 11.4363Z" fill="black"/>
<path d="M34.0937 13.5153C33.5723 13.3757 33.0371 13.6851 32.8974 14.2058C32.4969 15.7004 32.7037 16.6808 32.8864 17.5456C33.0508 18.3257 33.1809 18.9425 32.8974 20.0007C32.7578 20.5218 33.0672 21.057 33.5879 21.1966C33.6726 21.2191 33.7577 21.2302 33.8412 21.2302C34.2726 21.2302 34.6671 20.9425 34.7842 20.5061C35.1885 18.9967 34.9806 18.0113 34.7972 17.1423C34.6339 16.3672 34.5046 15.7546 34.7842 14.7116C34.9238 14.1905 34.6144 13.6549 34.0937 13.5153Z" fill="black"/>
<path d="M42.4094 13.5153C41.8883 13.3757 41.3527 13.6851 41.2131 14.2058C40.8126 15.7004 41.0197 16.6808 41.2021 17.5452C41.3669 18.3257 41.4969 18.9425 41.2131 20.0007C41.0735 20.5214 41.3829 21.057 41.9036 21.1966C41.9883 21.2191 42.0733 21.2302 42.1573 21.2302C42.5883 21.2302 42.9831 20.9425 43.0999 20.5061C43.5042 18.9967 43.2967 18.0113 43.1132 17.1423C42.9496 16.3668 42.8203 15.7546 43.0999 14.7116C43.2395 14.1905 42.9301 13.6549 42.4094 13.5153Z" fill="black"/>
<path d="M38 33.7996C40.5399 33.7996 42.6059 31.7332 42.6059 29.1934C42.6059 26.6165 40.1233 23.9215 38.9301 22.6264C38.8549 22.5447 38.7851 22.4688 38.7214 22.3994C38.5364 22.1965 38.2747 22.0809 38 22.0809C37.7258 22.0809 37.4637 22.1965 37.2787 22.3994C37.2153 22.4688 37.1452 22.5447 37.07 22.6264C35.8768 23.9215 33.3942 26.6165 33.3942 29.1934C33.3938 31.7332 35.4602 33.7996 38 33.7996ZM38 24.5059C39.0605 25.6922 40.6528 27.6545 40.6528 29.1934C40.6528 30.6563 39.463 31.8465 38 31.8465C36.5371 31.8465 35.3469 30.6563 35.3469 29.1934C35.3469 27.6545 36.9395 25.6922 38 24.5059Z" fill="black"/>
<path d="M45.8132 43.109C46.3526 43.109 46.7898 42.6718 46.7898 42.1324C46.7898 41.5934 46.3526 41.1559 45.8132 41.1559H45.8125C45.2731 41.1559 44.8363 41.5934 44.8363 42.1324C44.8363 42.6718 45.2738 43.109 45.8132 43.109Z" fill="black"/>
<path d="M26.7699 7.95312C27.3093 7.95312 27.7465 7.51596 27.7465 6.97656C27.7465 6.43716 27.3093 6 26.7699 6H26.7691C26.2298 6 25.793 6.43716 25.793 6.97656C25.793 7.51596 26.2305 7.95312 26.7699 7.95312Z" fill="black"/>
</g>
<defs>
<clipPath id="clip0">
<rect width="50" height="50" fill="white" transform="translate(13 6)"/>
</clipPath>
</defs>
</svg>
