<svg width="63" height="56" viewBox="0 0 63 56" fill="none" xmlns="http://www.w3.org/2000/svg">
<circle cx="18.5" cy="18.5" r="18.5" fill="#295BA0"/>
<path d="M53.039 19.2816H58.1171C58.6565 19.2816 59.0937 18.8441 59.0937 18.305H62.0233C62.5627 18.305 62.9999 17.8675 62.9999 17.3285V13.4222C62.9999 12.8828 62.5627 12.4457 62.0233 12.4457H59.0937C59.0937 11.9063 58.6565 11.4691 58.1171 11.4691H53.039C52.4996 11.4691 52.0624 11.9063 52.0624 12.4457H50.1093V11.4687C50.1093 9.85322 48.7951 8.53906 47.1796 8.53906C45.9067 8.53906 44.821 9.35579 44.4178 10.4922H42.129C41.7258 9.35579 40.6401 8.53906 39.3671 8.53906C38.0938 8.53906 37.0085 9.35579 36.6053 10.4922H34.3165C33.9133 9.35579 32.8276 8.53906 31.5547 8.53906C30.2813 8.53906 29.196 9.35579 28.7928 10.4922H26.504C26.1008 9.35579 25.0151 8.53906 23.7422 8.53906C22.4692 8.53906 21.3835 9.35579 20.9803 10.4922H18.6915C18.2883 9.35579 17.2026 8.53906 15.9297 8.53906C14.3142 8.53906 13 9.85322 13 11.4687C13 12.0081 13.4372 12.4453 13.9766 12.4453C14.516 12.4453 14.9531 12.0081 14.9531 11.4687C14.9531 10.9305 15.391 10.4922 15.9297 10.4922C16.4683 10.4922 16.9062 10.9305 16.9062 11.4687V51.5077H14.9531V20.2578C14.9531 19.7184 14.516 19.2812 13.9766 19.2812C13.4372 19.2812 13 19.7184 13 20.2578V52.4843C13 53.0237 13.4372 53.4608 13.9766 53.4608H17.8828C18.4222 53.4608 18.8594 53.0237 18.8594 52.4843V43.6949H20.9803C21.3835 44.8316 22.4688 45.648 23.7422 45.648C25.0151 45.648 26.1008 44.8316 26.504 43.6949H28.7928C29.196 44.8316 30.2813 45.648 31.5547 45.648C32.8276 45.648 33.9133 44.8316 34.3165 43.6949H36.6053C37.0085 44.8316 38.0938 45.648 39.3671 45.648C40.6401 45.648 41.7258 44.8316 42.129 43.6949H44.2499V52.4843C44.2499 53.0237 44.6871 53.4608 45.2265 53.4608H49.1327C49.6718 53.4608 50.1093 53.0237 50.1093 52.4843V51.5073C50.1093 50.9683 49.6718 50.5308 49.1327 50.5308C48.5933 50.5308 48.1562 50.9683 48.1562 51.5073L46.2031 51.5077V42.7183C46.2031 42.7175 46.2031 42.7172 46.2031 42.7172V36.8608C46.2031 36.8608 46.2031 36.8593 46.2031 36.8589C46.2031 36.8589 46.2031 36.8574 46.2031 36.857V17.3304C46.2031 17.3296 46.2031 17.3289 46.2031 17.3285C46.2031 17.3277 46.2031 17.3273 46.2031 17.3266V11.4707C46.2031 11.4699 46.2031 11.4695 46.2031 11.4687C46.2031 11.4687 46.2031 11.4684 46.2031 11.468C46.2034 10.9301 46.6414 10.4922 47.1796 10.4922C47.7183 10.4922 48.1562 10.9305 48.1562 11.4687V42.7183C48.1562 43.2577 48.5933 43.6949 49.1327 43.6949H52.0624V43.6952C52.0624 44.2343 52.4996 44.6718 53.039 44.6718H58.1175C58.6565 44.6718 59.094 44.2343 59.094 43.6952V43.6949H62.0233C62.5627 43.6949 62.9999 43.2577 62.9999 42.7183V38.8124C62.9999 38.273 62.5627 37.8359 62.0233 37.8359H59.094C59.094 37.2965 58.6565 36.8593 58.1175 36.8593H53.039C52.4996 36.8593 52.0624 37.2965 52.0624 37.8359H50.1093V18.305H52.0624C52.0624 18.8444 52.4996 19.2816 53.039 19.2816ZM42.2968 12.4453H44.2499V16.3519H42.2968V12.4453ZM42.2968 18.305H44.2499V35.8824H42.2968V18.305ZM34.4843 18.305H36.4375V35.8824H34.4843V18.305ZM36.4375 16.3519H34.4843V12.4453H36.4375V16.3519ZM34.4843 37.8355H36.4375V41.7417H34.4843V37.8355ZM26.6718 18.305H28.625V35.8824H26.6718V18.305ZM28.625 16.3519H26.6718V12.4453H28.625V16.3519ZM26.6718 37.8355H28.625V41.7417H26.6718V37.8355ZM20.8125 16.3519H18.8594V12.4453H20.8125V16.3519ZM18.8594 18.305H20.8125V35.8824H18.8594V18.305ZM18.8594 37.8355H20.8125V41.7417H18.8594V37.8355ZM23.7422 43.6949C23.2035 43.6949 22.7656 43.2569 22.7656 42.7183V11.4687C22.7656 10.9305 23.2035 10.4922 23.7422 10.4922C24.2808 10.4922 24.7187 10.9305 24.7187 11.4687V42.7183C24.7187 43.2569 24.2808 43.6949 23.7422 43.6949ZM31.5547 43.6949C31.0164 43.6949 30.5785 43.2573 30.5781 42.7194V42.7183C30.5781 42.7179 30.5781 42.7172 30.5781 42.7172V36.8608C30.5781 36.8608 30.5781 36.8593 30.5781 36.8589C30.5781 36.8589 30.5781 36.8578 30.5781 36.857V17.3304C30.5781 17.3296 30.5781 17.3289 30.5781 17.3285C30.5781 17.3277 30.5781 17.3273 30.5781 17.3266V11.4707C30.5781 11.4699 30.5781 11.4695 30.5781 11.4687C30.5781 11.4687 30.5781 11.4684 30.5781 11.468C30.5785 10.9301 31.0164 10.4922 31.5547 10.4922C32.0933 10.4922 32.5312 10.9305 32.5312 11.4687V42.7183C32.5312 43.2569 32.0929 43.6949 31.5547 43.6949ZM40.3437 42.7183C40.3437 43.2569 39.9054 43.6949 39.3671 43.6949C38.8289 43.6949 38.391 43.2573 38.3906 42.7194V42.7183C38.3906 42.7179 38.3906 42.7172 38.3906 42.7172V36.8608C38.3906 36.8608 38.3906 36.8593 38.3906 36.8589C38.3906 36.8589 38.3906 36.8578 38.3906 36.857V17.3304C38.3906 17.3296 38.3906 17.3289 38.3906 17.3285C38.3906 17.3277 38.3906 17.3273 38.3906 17.3266V11.4707C38.3906 11.4699 38.3906 11.4695 38.3906 11.4687C38.3906 11.4687 38.3906 11.4684 38.3906 11.468C38.391 10.9301 38.8289 10.4922 39.3671 10.4922C39.9058 10.4922 40.3437 10.9305 40.3437 11.4687V42.7183ZM42.2968 41.7417V37.8355H44.2499V41.7417H42.2968ZM61.0468 14.3988V16.3519H59.0937V14.3988H61.0468ZM54.0155 13.4222H57.1405V17.3285H54.0155V13.4222ZM61.0468 39.789V41.7417H59.0937V39.789H61.0468ZM57.1405 38.8124V42.7187H54.0155V38.8124H57.1405ZM52.0624 39.789V41.7417H50.1093V39.789H52.0624ZM50.1093 16.3519V14.3988H52.0624V16.3519H50.1093Z" fill="black"/>
<path d="M13.9766 16.8402C14.516 16.8402 14.9531 16.4027 14.9531 15.8637V15.8629C14.9531 15.3235 14.516 14.8867 13.9766 14.8867C13.4372 14.8867 13 15.3243 13 15.8637C13 16.4031 13.4372 16.8402 13.9766 16.8402Z" fill="black"/>
<path d="M49.1328 46.1363C48.5934 46.1363 48.1562 46.5742 48.1562 47.1132C48.1562 47.6526 48.5934 48.0898 49.1328 48.0898C49.6718 48.0898 50.1094 47.6526 50.1094 47.1132V47.1125C50.1094 46.5735 49.6718 46.1363 49.1328 46.1363Z" fill="black"/>
</svg>
