<svg width="19" height="20" viewBox="0 0 19 20" fill="none" xmlns="http://www.w3.org/2000/svg">
<path d="M6.93534 12.2773C7.56555 12.9076 8.32467 13.2227 9.21269 13.2227C10.1007 13.2227 10.8598 12.9076 11.49 12.2773C12.1202 11.6471 12.4353 10.888 12.4353 10C12.4353 9.11198 12.1202 8.35286 11.49 7.72266C10.8598 7.09245 10.1007 6.77734 9.21269 6.77734C8.32467 6.77734 7.56555 7.09245 6.93534 7.72266C6.30514 8.35286 5.99003 9.11198 5.99003 10C5.99003 10.888 6.30514 11.6471 6.93534 12.2773ZM16.0447 10.9023L17.9783 12.4062C18.1788 12.5495 18.2075 12.75 18.0643 13.0078L16.2166 16.1875C16.102 16.388 15.9158 16.4453 15.658 16.3594L13.3807 15.457C12.7791 15.8867 12.2635 16.1875 11.8338 16.3594L11.49 18.7656C11.4327 19.0234 11.2895 19.1523 11.0603 19.1523H7.36503C7.13586 19.1523 6.99264 19.0234 6.93534 18.7656L6.59159 16.3594C6.04732 16.1302 5.5317 15.8294 5.04472 15.457L2.76737 16.3594C2.50956 16.4453 2.32336 16.388 2.20878 16.1875L0.361125 13.0078C0.217896 12.75 0.246541 12.5495 0.447062 12.4062L2.38066 10.9023C2.35201 10.7018 2.33769 10.401 2.33769 10C2.33769 9.59896 2.35201 9.29818 2.38066 9.09766L0.447062 7.59375C0.246541 7.45052 0.217896 7.25 0.361125 6.99219L2.20878 3.8125C2.32336 3.61198 2.50956 3.55469 2.76737 3.64062L5.04472 4.54297C5.64628 4.11328 6.16191 3.8125 6.59159 3.64062L6.93534 1.23438C6.99264 0.976562 7.13586 0.847656 7.36503 0.847656H11.0603C11.2895 0.847656 11.4327 0.976562 11.49 1.23438L11.8338 3.64062C12.3781 3.86979 12.8937 4.17057 13.3807 4.54297L15.658 3.64062C15.9158 3.55469 16.102 3.61198 16.2166 3.8125L18.0643 6.99219C18.2075 7.25 18.1788 7.45052 17.9783 7.59375L16.0447 9.09766C16.0734 9.29818 16.0877 9.59896 16.0877 10C16.0877 10.401 16.0734 10.7018 16.0447 10.9023Z" fill="#989898"/>
</svg>
