<svg width="59" height="62" viewBox="0 0 59 62" fill="none" xmlns="http://www.w3.org/2000/svg">
<circle cx="18.5" cy="18.5" r="18.5" fill="#295BA0"/>
<path d="M53.5312 49.6953H53.5068C53.3451 46.4486 52.3796 43.2962 50.6897 40.5221C50.4093 40.0617 49.8085 39.9156 49.3477 40.1963C48.8872 40.4771 48.7411 41.0775 49.0219 41.5383C50.5249 44.0061 51.3889 46.8076 51.5488 49.6953H43.7176C43.4967 47.4553 42.5178 45.3782 40.9057 43.7661C39.7869 42.6477 38.4243 41.8241 36.9297 41.3549V33.3387C39.1315 33.706 41.214 34.4808 43.1328 35.6496C43.2915 35.7461 43.4669 35.7923 43.6397 35.7923C43.9693 35.7923 44.2909 35.6256 44.4748 35.3238C44.7555 34.863 44.6094 34.2622 44.149 33.9814C41.9216 32.6249 39.4966 31.7464 36.9297 31.3615V31.1406C36.9297 30.6012 36.4921 30.1641 35.9531 30.1641H32.0469C31.6948 30.1641 31.3873 30.351 31.2153 30.6302C30.1929 30.2407 29.2599 29.6369 28.4752 28.853C27.232 27.6094 26.4618 26.0198 26.2493 24.3016C26.7597 24.2696 27.1641 23.8465 27.1641 23.3281V19.4219C27.1641 18.8829 26.7265 18.4453 26.1875 18.4453H25.2109V12.9766C25.2109 12.4372 24.7734 12 24.2344 12C23.695 12 23.2578 12.4372 23.2578 12.9766V18.4453H17.3984V12.9766C17.3984 12.4372 16.9609 12 16.4219 12C15.8825 12 15.4453 12.4372 15.4453 12.9766V18.4453H14.4688C13.9294 18.4453 13.4922 18.8825 13.4922 19.4219V23.3281C13.4922 23.8675 13.9294 24.3047 14.4688 24.3047H14.4935C14.6549 27.551 15.62 30.7038 17.3099 33.4771C17.4938 33.7793 17.8154 33.946 18.145 33.946C18.3178 33.946 18.4933 33.8998 18.6519 33.8033C19.1124 33.5225 19.2585 32.9217 18.9777 32.4613C17.4747 29.9939 16.6111 27.1924 16.4512 24.3047H24.2824C24.5033 26.5447 25.4822 28.6218 27.0943 30.2339C28.2131 31.3527 29.5761 32.1763 31.0703 32.6451V40.6617C28.8685 40.294 26.786 39.5196 24.8665 38.35C24.4057 38.0696 23.8048 38.2157 23.5245 38.6762C23.2441 39.137 23.3898 39.7378 23.8506 40.0182C26.078 41.3751 28.5034 42.2536 31.0703 42.6385V42.8594C31.0703 43.3988 31.5079 43.8359 32.0469 43.8359H35.9531C36.3052 43.8359 36.6127 43.6494 36.7847 43.3702C37.8071 43.7596 38.7401 44.3631 39.5244 45.1474C40.768 46.3906 41.5382 47.9802 41.7507 49.6984C41.2403 49.7308 40.8359 50.1535 40.8359 50.6719V54.5781C40.8359 55.1175 41.2731 55.5547 41.8125 55.5547H42.7891V61.0234C42.7891 61.5628 43.2266 62 43.7656 62C44.305 62 44.7422 61.5628 44.7422 61.0234V55.5547H50.6016V61.0234C50.6016 61.5628 51.0387 62 51.5781 62C52.1175 62 52.5547 61.5628 52.5547 61.0234V55.5547H53.5312C54.0706 55.5547 54.5078 55.1175 54.5078 54.5781V50.6719C54.5078 50.1325 54.0706 49.6953 53.5312 49.6953ZM15.4453 20.3984H25.2109V22.3516H15.4453V20.3984ZM33.0234 41.784C33.0234 41.7829 33.0234 41.7821 33.0234 41.781V32.1172H34.9766V32.216V32.219V41.8828H33.0234V41.784ZM52.5547 53.6016H42.7891V51.6484H52.5547V53.6016Z" fill="black"/>
<path d="M21.6023 35.7907C21.2395 35.3913 20.6223 35.3623 20.2229 35.7251C19.8239 36.0879 19.7949 36.7059 20.1577 37.1049C20.3503 37.317 20.615 37.4246 20.8805 37.4246C21.1148 37.4246 21.3501 37.3406 21.537 37.1705C21.9361 36.8077 21.9658 36.1901 21.6027 35.7911L21.6023 35.7907Z" fill="black"/>
<path d="M47.1202 38.5286C47.3544 38.5286 47.5894 38.4446 47.7767 38.2745C48.1757 37.9117 48.2051 37.2941 47.8423 36.8951L47.842 36.8947C47.4792 36.4957 46.862 36.4663 46.4626 36.8291C46.0636 37.1919 46.0346 37.8099 46.3973 38.2089C46.59 38.421 46.8543 38.5286 47.1202 38.5286Z" fill="black"/>
</svg>
