<svg width="62" height="50" viewBox="0 0 62 50" fill="none" xmlns="http://www.w3.org/2000/svg">
<circle cx="43.5" cy="31.5" r="18.5" fill="#295BA0"/>
<g clip-path="url(#clip0)">
<path d="M48.9259 35.7422H45.9962V29.8828H48.9259C49.4653 29.8828 49.9024 29.4456 49.9024 28.9062C49.9024 28.3668 49.4653 27.9297 48.9259 27.9297H45.9962V26.9531C45.9962 26.4137 45.5586 25.9765 45.0196 25.9765H41.1134C40.574 25.9765 40.1368 26.4137 40.1368 26.9531H36.1619C34.9576 24.6483 33.0666 22.7569 30.7618 21.5526V18.164C31.3012 18.164 31.7383 17.7265 31.7383 17.1875V13.2812C31.7383 12.7418 31.3012 12.3046 30.7618 12.3046H27.8321V10.3515H30.7618C32.3773 10.3515 33.6915 9.03735 33.6915 7.42182C33.6915 5.80629 32.3773 4.49213 30.7618 4.49213H27.8321C27.2927 4.49213 26.8555 4.92929 26.8555 5.46869C26.8555 6.00771 27.2927 6.44526 27.8321 6.44526H30.7618C31.3004 6.44526 31.7383 6.88318 31.7383 7.42182C31.7383 7.96007 31.3004 8.39838 30.7618 8.39838H19.043C18.5044 8.39838 18.0664 7.96007 18.0664 7.42182C18.0664 6.88318 18.5044 6.44526 19.043 6.44526C19.5824 6.44526 20.0196 6.00771 20.0196 5.46869C20.0196 4.92929 19.5824 4.49213 19.043 4.49213C17.4275 4.49213 16.1133 5.80629 16.1133 7.42182C16.1133 9.03735 17.4275 10.3515 19.043 10.3515H21.9727V12.3046H19.043C18.5036 12.3046 18.0664 12.7418 18.0664 13.2812V17.1875C18.0664 17.7265 18.5036 18.164 19.043 18.164V21.553C16.7382 22.7569 14.8472 24.6483 13.6429 26.9531H9.66799C9.66799 26.4137 9.23082 25.9765 8.69142 25.9765H4.78517C4.24577 25.9765 3.8086 26.4137 3.8086 26.9531V27.9297H0.878908C0.339509 27.9297 -0.0976562 28.3668 -0.0976562 28.9062C-0.0976562 29.4456 0.339509 29.8828 0.878908 29.8828H3.8086V35.7422H0.878908C0.339509 35.7422 -0.0976562 36.1794 -0.0976562 36.7188C-0.0976562 37.2578 0.339509 37.6953 0.878908 37.6953H3.8086V38.6719C3.8086 39.2109 4.24577 39.6484 4.78517 39.6484H8.69142C9.23082 39.6484 9.66799 39.2109 9.66799 38.6719H13.6429C15.7635 42.7307 20.0142 45.5078 24.9024 45.5078C29.7902 45.5078 34.0413 42.7307 36.1619 38.6719H40.1368C40.1368 39.2109 40.574 39.6484 41.1134 39.6484H45.0196C45.5586 39.6484 45.9962 39.2109 45.9962 38.6719V37.6953H48.9259C49.4653 37.6953 49.9024 37.2578 49.9024 36.7188C49.9024 36.1794 49.4653 35.7422 48.9259 35.7422ZM23.9258 10.3515H25.879V12.3046H23.9258V10.3515ZM20.0196 14.2578H29.7852V16.2109H20.0196V14.2578ZM20.9961 18.164H28.8087V20.7329C27.5776 20.3338 26.265 20.1172 24.9024 20.1172C23.5402 20.1172 22.2271 20.3338 20.9961 20.7329V18.164ZM5.76173 37.6953V27.9297H7.71486V37.6953H5.76173ZM9.66799 36.7188V28.9062H12.8227C12.4237 30.1372 12.2071 31.4499 12.2071 32.8125C12.2071 34.1747 12.4237 35.4874 12.8227 36.7188H9.66799ZM24.9024 43.5547C18.9793 43.5547 14.1602 38.7356 14.1602 32.8125C14.1602 26.889 18.9793 22.0703 24.9024 22.0703C30.8255 22.0703 35.6446 26.889 35.6446 32.8125C35.6446 38.7356 30.8259 43.5547 24.9024 43.5547ZM36.982 36.7188C37.3811 35.4874 37.5977 34.1747 37.5977 32.8125C37.5977 31.4499 37.3811 30.1372 36.982 28.9062H40.1368V36.7188H36.982ZM44.0431 37.6953H42.0899V27.9297H44.0431V37.6953Z" fill="black"/>
<path d="M24.9024 24.0234C20.0562 24.0234 16.1133 27.9659 16.1133 32.8125C16.1133 35.7216 17.5503 38.4381 19.9574 40.0788C20.4033 40.3828 21.0106 40.2676 21.3146 39.822C21.6183 39.3765 21.5031 38.7688 21.0575 38.4651C19.4572 37.3741 18.4086 35.6728 18.137 33.7891H18.3239C18.8633 33.7891 19.3005 33.3515 19.3005 32.8125C19.3005 32.2731 18.8633 31.836 18.3239 31.836H18.1374C18.2152 31.2927 18.3579 30.7705 18.5562 30.2761L18.7168 30.3688C18.8705 30.4573 19.0384 30.4997 19.2043 30.4997C19.5416 30.4997 19.87 30.3246 20.0508 30.0114C20.3205 29.5441 20.1603 28.9471 19.6934 28.6774L19.5355 28.5862C19.8696 28.1624 20.2526 27.7798 20.676 27.4452L20.7672 27.6035C20.9484 27.9167 21.2765 28.0918 21.6141 28.0918C21.7796 28.0918 21.9475 28.0495 22.1012 27.961C22.5685 27.6909 22.7284 27.0939 22.4587 26.627L22.366 26.4664C22.8603 26.268 23.3826 26.1253 23.9258 26.0471V26.2337C23.9258 26.7731 24.363 27.2102 24.9024 27.2102C25.4418 27.2102 25.8789 26.7731 25.8789 26.2337V26.0471C26.4221 26.1253 26.9444 26.268 27.4388 26.4664L27.3461 26.627C27.0764 27.0939 27.2366 27.6909 27.7035 27.961C27.8572 28.0495 28.0251 28.0918 28.191 28.0918C28.5282 28.0918 28.8567 27.9167 29.0375 27.6035L29.1287 27.4452C29.5521 27.7798 29.9351 28.1624 30.2693 28.5862L30.1113 28.6774C29.6444 28.9471 29.4842 29.5441 29.7543 30.0114C29.9351 30.3246 30.2632 30.4997 30.6008 30.4997C30.7663 30.4997 30.9342 30.4573 31.0879 30.3688L31.2485 30.2761C31.4469 30.7705 31.5895 31.2927 31.6677 31.836H31.4812C30.9418 31.836 30.5046 32.2731 30.5046 32.8125C30.5046 33.3515 30.9418 33.7891 31.4812 33.7891H31.6677C31.3961 35.6728 30.3475 37.3745 28.7468 38.4655C28.3013 38.7692 28.1861 39.3769 28.4897 39.8224C28.6789 40.0998 28.9856 40.2493 29.2977 40.2493C29.4869 40.2493 29.6784 40.1944 29.8466 40.0795C32.254 38.4388 33.6914 35.722 33.6914 32.8125C33.6914 27.9663 29.7486 24.0234 24.9024 24.0234Z" fill="black"/>
<path d="M25.8789 32.9804V29.7368C25.8789 29.1977 25.4417 28.7602 24.9023 28.7602C24.363 28.7602 23.9258 29.1977 23.9258 29.7368V32.9804C22.789 33.3836 21.9727 34.4693 21.9727 35.7422C21.9727 37.3578 23.2868 38.6719 24.9023 38.6719C26.5179 38.6719 27.832 37.3578 27.832 35.7422C27.832 34.4693 27.0157 33.3836 25.8789 32.9804ZM24.9023 36.7188C24.3637 36.7188 23.9258 36.2805 23.9258 35.7422C23.9258 35.204 24.3633 34.7661 24.9012 34.7657H24.9023H24.9035C25.4414 34.7661 25.8789 35.204 25.8789 35.7422C25.8789 36.2805 25.441 36.7188 24.9023 36.7188Z" fill="black"/>
<path d="M23.4379 6.44526C23.9773 6.44526 24.4144 6.00771 24.4144 5.46869C24.4144 4.92929 23.9773 4.49213 23.4379 4.49213H23.4371C22.8977 4.49213 22.4609 4.92929 22.4609 5.46869C22.4609 6.00771 22.8985 6.44526 23.4379 6.44526Z" fill="black"/>
<path d="M24.9024 39.6485H24.9017C24.3623 39.6485 23.9255 40.0857 23.9255 40.6251C23.9255 41.1641 24.363 41.6016 24.9024 41.6016C25.4418 41.6016 25.879 41.1641 25.879 40.6251C25.879 40.0857 25.4418 39.6485 24.9024 39.6485Z" fill="black"/>
</g>
<defs>
<clipPath id="clip0">
<rect width="50" height="50" fill="white"/>
</clipPath>
</defs>
</svg>
