<svg width="51" height="55" viewBox="0 0 51 55" fill="none" xmlns="http://www.w3.org/2000/svg">
<circle cx="32.5" cy="18.5" r="18.5" fill="#295BA0"/>
<path d="M40.6254 13.7891H30.8594C30.3204 13.7891 29.8828 14.2262 29.8828 14.7656H25.9766V13.7891C25.9766 12.5161 25.1602 11.4304 24.0234 11.0272V5.97656C24.0234 5.43716 23.5863 5 23.0469 5H9.375C8.8356 5 8.39844 5.43716 8.39844 5.97656V11.0272C7.26166 11.4304 6.44531 12.5161 6.44531 13.7891V14.7656C6.44531 15.305 6.88248 15.7422 7.42188 15.7422C7.96127 15.7422 8.39844 15.305 8.39844 14.7656V13.7891C8.39844 13.2504 8.83636 12.8125 9.375 12.8125H23.0469C23.5855 12.8125 24.0234 13.2504 24.0234 13.7891V15.7422C24.0234 16.2816 24.461 16.7188 25 16.7188H29.8828V24.5312H25C24.461 24.5312 24.0234 24.9688 24.0234 25.5078V31.693C20.6348 31.0063 18.3056 31.4965 16.0465 31.973C13.7913 32.449 11.652 32.8996 8.39844 32.1614V23.5547C8.39844 23.0153 7.96127 22.5781 7.42188 22.5781C6.88248 22.5781 6.44531 23.0153 6.44531 23.5547V45.2344C6.44531 50.6192 10.8261 55 16.2109 55C21.5958 55 25.9766 50.6192 25.9766 45.2344V26.4844H29.8828V26.4848C29.8828 27.0238 30.3204 27.4613 30.8594 27.4613H40.6254C42.2405 27.4613 43.5551 26.1468 43.5551 24.5316V16.7188C43.5551 15.1032 42.2405 13.7891 40.6254 13.7891ZM22.0703 6.95312V10.8594H10.3516V6.95312H22.0703ZM16.2109 53.0469C11.903 53.0469 8.39844 49.5423 8.39844 45.2344V34.1595C9.62524 34.4094 10.7132 34.5071 11.7088 34.5071C13.4975 34.5071 14.9879 34.1927 16.4497 33.8841C18.6893 33.4119 20.8138 32.9644 24.0234 33.6903V45.2344C24.0234 49.5423 20.5189 53.0469 16.2109 53.0469ZM31.8359 19.6488H37.6957V21.6019H31.8359V19.6488ZM31.8359 15.7422H37.6957V17.6957H31.8359V15.7422ZM31.8359 23.5551H37.6957V25.5082H31.8359V23.5551ZM41.6019 24.5316C41.6019 25.0699 41.1636 25.5082 40.6254 25.5082H39.6488V15.7422H40.6254C41.1636 15.7422 41.6019 16.1801 41.6019 16.7188V24.5316Z" fill="black"/>
<path d="M21.0938 36.4457C20.5544 36.4457 20.1172 36.8832 20.1172 37.4226C20.1172 37.962 20.5544 38.3992 21.0938 38.3992C21.6328 38.3992 22.0703 37.962 22.0703 37.4226V37.4219C22.0703 36.8825 21.6331 36.4457 21.0938 36.4457Z" fill="black"/>
<path d="M21.0938 40.8402C20.5544 40.8402 20.1172 41.2774 20.1172 41.8168V47.1875C20.1172 47.7269 20.5544 48.164 21.0938 48.164C21.6328 48.164 22.0703 47.7269 22.0703 47.1875V41.8168C22.0703 41.2774 21.6331 40.8402 21.0938 40.8402Z" fill="black"/>
<path d="M7.42188 20.1371C7.96127 20.1371 8.39844 19.6999 8.39844 19.1605V19.1598C8.39844 18.6204 7.96127 18.1836 7.42188 18.1836C6.88248 18.1836 6.44531 18.6211 6.44531 19.1605C6.44531 19.6999 6.88248 20.1371 7.42188 20.1371Z" fill="black"/>
</svg>
