<svg width="59" height="62" viewBox="0 0 59 62" fill="none" xmlns="http://www.w3.org/2000/svg">
<circle cx="18.5" cy="18.5" r="18.5" fill="#295BA0"/>
<path d="M33.041 58.9685C31.4972 59.6841 29.8485 60.0469 28.1406 60.0469C25.0206 60.0469 22.0806 58.825 19.862 56.6064C17.6437 54.3882 16.4219 51.4482 16.4219 48.3281V27.625C16.4219 27.0856 15.9847 26.6484 15.4453 26.6484C14.9059 26.6484 14.4688 27.0856 14.4688 27.625V48.3281C14.4688 51.97 15.8935 55.4006 18.4811 57.9877C21.0682 60.5752 24.4987 62 28.1406 62C30.1342 62 32.0595 61.5762 33.8623 60.7404C34.3517 60.5138 34.5646 59.9332 34.3376 59.4438C34.1106 58.9547 33.53 58.7419 33.041 58.9685Z" fill="#141414"/>
<path d="M54.5078 21.375H50.6016C50.0622 21.375 49.625 21.8122 49.625 22.3516V23.3541C45.05 23.5917 40.7734 25.4949 37.4935 28.7747C34.2136 32.0546 32.3101 36.3313 32.0728 40.9062H31.0703C30.5309 40.9062 30.0938 41.3434 30.0938 41.8828V45.7891C30.0938 46.3285 30.5309 46.7656 31.0703 46.7656H32.0469V48.3281C32.0469 49.3623 31.6379 50.3408 30.8956 51.0831C30.1529 51.8254 29.1748 52.2344 28.1406 52.2344C27.1065 52.2344 26.128 51.8254 25.3857 51.0831C24.6433 50.3408 24.2344 49.3623 24.2344 48.3281V17.8594H25.2109C25.7503 17.8594 26.1875 17.4222 26.1875 16.8828V12.9766C26.1875 12.4372 25.7503 12 25.2109 12H13.4922C12.9528 12 12.5156 12.4372 12.5156 12.9766V16.8828C12.5156 17.4222 12.9528 17.8594 13.4922 17.8594H14.4688V18.8359C14.4688 19.3753 14.9059 19.8125 15.4453 19.8125C15.9847 19.8125 16.4219 19.3753 16.4219 18.8359V17.8594H22.2812V48.3281C22.2812 49.8841 22.8935 51.3528 24.0047 52.464C25.116 53.5752 26.5846 54.1875 28.1406 54.1875C29.6963 54.1875 31.1653 53.5756 32.2765 52.464C33.3881 51.3528 34 49.8838 34 48.3281V46.7656H39.8594V48.3281C39.8594 50.0363 39.4962 51.6854 38.7806 53.2292C38.554 53.7187 38.7665 54.2993 39.2559 54.5259C39.3886 54.5877 39.5286 54.6167 39.666 54.6167C40.0345 54.6167 40.3873 54.4072 40.5525 54.0506C41.3887 52.2477 41.8125 50.3224 41.8125 48.3281V46.7656H42.7891C43.3285 46.7656 43.7656 46.3285 43.7656 45.7891V41.8828C43.7656 41.3434 43.3285 40.9062 42.7891 40.9062H41.8686C42.0879 38.9402 42.9657 37.1122 44.3981 35.6794C45.8305 34.2469 47.6589 33.3696 49.625 33.1498V34.0703C49.625 34.6097 50.0622 35.0469 50.6016 35.0469H54.5078C55.0468 35.0469 55.4844 34.6097 55.4844 34.0703V22.3516C55.4844 21.8122 55.0468 21.375 54.5078 21.375ZM14.4688 13.9531H24.2344V15.9062H14.4688V13.9531ZM41.8125 44.8125H32.0469V42.8594H41.8125V44.8125ZM43.0172 34.2984C41.2147 36.1009 40.1298 38.4179 39.904 40.9062H34.0294C34.2651 36.8531 35.9638 33.0663 38.8744 30.1557C41.785 27.2451 45.5719 25.5464 49.6246 25.3106V31.1856C47.1367 31.4111 44.8192 32.496 43.0172 34.2984ZM53.5312 33.0938H51.5781V23.3281H53.5312V33.0938Z" fill="#141414"/>
<path d="M15.4453 24.2074C15.9847 24.2074 16.4219 23.7702 16.4219 23.2309V23.2301C16.4219 22.6907 15.9847 22.2539 15.4453 22.2539C14.9059 22.2539 14.4688 22.6915 14.4688 23.2309C14.4688 23.7702 14.9059 24.2074 15.4453 24.2074Z" fill="#141414"/>
<path d="M36.4185 56.6072C36.0374 56.9887 36.0374 57.607 36.4185 57.9885C36.6092 58.1792 36.8591 58.2742 37.1093 58.2742C37.3592 58.2742 37.6091 58.1788 37.7998 57.9885L37.8002 57.9877C38.1817 57.6066 38.1813 56.9883 37.7998 56.6072C37.4187 56.2257 36.8 56.2261 36.4185 56.6072Z" fill="#141414"/>
</svg>
