<svg width="64" height="50" viewBox="0 0 64 50" fill="none" xmlns="http://www.w3.org/2000/svg">
<circle cx="18.5" cy="31.5" r="18.5" fill="#295BA0"/>
<path d="M63.0227 36.7188C62.4833 36.7188 62.0461 37.1559 62.0461 37.6953C62.0461 38.2347 62.4833 38.6719 63.0227 38.6719H63.0235C63.5629 38.6719 63.9996 38.2347 63.9996 37.6953C63.9996 37.1559 63.5621 36.7188 63.0227 36.7188Z" fill="black"/>
<path d="M58.6285 36.7188H54.625V30.8594H63.0234C63.5628 30.8594 64 30.4222 64 29.8828C64 29.3434 63.5628 28.9062 63.0234 28.9062H54.625V27.9297C54.625 27.3903 54.1878 26.9531 53.6484 26.9531H49.7422C49.2028 26.9531 48.7656 27.3903 48.7656 27.9297H44.8594V24.0234C45.3988 24.0234 45.8359 23.5863 45.8359 23.0469V19.1406C45.8359 18.6012 45.3988 18.1641 44.8594 18.1641H41.9297V15.2344H44.8594C46.4749 15.2344 47.7891 13.9202 47.7891 12.3047C47.7891 10.6892 46.4749 9.375 44.8594 9.375H41.9297C41.3903 9.375 40.9531 9.81216 40.9531 10.3516C40.9531 10.891 41.3903 11.3281 41.9297 11.3281H44.8594C45.3976 11.3281 45.8359 11.7661 45.8359 12.3047C45.8359 12.8433 45.3976 13.2812 44.8594 13.2812H33.1406C32.602 13.2812 32.1641 12.8433 32.1641 12.3047C32.1641 11.7661 32.602 11.3281 33.1406 11.3281C33.68 11.3281 34.1172 10.891 34.1172 10.3516C34.1172 9.81216 33.68 9.375 33.1406 9.375C31.5251 9.375 30.2109 10.6892 30.2109 12.3047C30.2109 13.9202 31.5251 15.2344 33.1406 15.2344H36.0703V18.1641H33.1406C32.6012 18.1641 32.1641 18.6012 32.1641 19.1406V23.0469C32.1641 23.5863 32.6012 24.0234 33.1406 24.0234V27.9297H29.2344C29.2344 27.3903 28.7972 26.9531 28.2578 26.9531H24.3516C23.8122 26.9531 23.375 27.3903 23.375 27.9297V28.9062H14.9766C14.4372 28.9062 14 29.3434 14 29.8828C14 30.4222 14.4372 30.8594 14.9766 30.8594H23.375V36.7188H14.9766C14.4372 36.7188 14 37.1559 14 37.6953C14 38.2347 14.4372 38.6719 14.9766 38.6719H23.375V39.6484C23.375 40.1878 23.8122 40.625 24.3516 40.625H28.2578C28.7972 40.625 29.2344 40.1878 29.2344 39.6484H48.7656C48.7656 40.1878 49.2028 40.625 49.7422 40.625H53.6484C54.1878 40.625 54.625 40.1878 54.625 39.6484V38.6719H58.6285C59.1679 38.6719 59.6051 38.2347 59.6051 37.6953C59.6051 37.1559 59.1679 36.7188 58.6285 36.7188ZM38.0234 15.2344H39.9766V18.1641H38.0234V15.2344ZM34.1172 20.1172H43.8828V22.0703H34.1172V20.1172ZM27.2812 38.6719H25.3281V28.9062H27.2812V38.6719ZM29.2344 37.6953V29.8828H34.1172C34.6566 29.8828 35.0938 29.4456 35.0938 28.9062V24.0234H42.9062V28.9062C42.9062 29.4456 43.3434 29.8828 43.8828 29.8828H48.7656V37.6953H29.2344ZM52.6719 38.6719H50.7188V28.9062H52.6719V38.6719Z" fill="black"/>
<path d="M37.5355 11.3281C38.0749 11.3281 38.5121 10.891 38.5121 10.3516C38.5121 9.81216 38.0749 9.375 37.5355 9.375H37.5348C36.9954 9.375 36.5586 9.81216 36.5586 10.3516C36.5586 10.891 36.9961 11.3281 37.5355 11.3281Z" fill="black"/>
</svg>
