<svg width="59" height="62" viewBox="0 0 59 62" fill="none" xmlns="http://www.w3.org/2000/svg">
<circle cx="18.5" cy="18.5" r="18.5" fill="#295BA0"/>
<path d="M55.4844 24.6957H29.1172V18.8359H35.9531C36.4925 18.8359 36.9297 18.3988 36.9297 17.8594V12.9766C36.9297 12.4372 36.4925 12 35.9531 12H20.3281C19.7422 12 19.1547 12.0591 18.5821 12.1755C18.0538 12.2831 17.7124 12.7988 17.82 13.3271C17.9275 13.8559 18.4433 14.1969 18.9716 14.0893C19.416 13.9989 19.8727 13.9531 20.3281 13.9531H27.1641V24.6957H13.4922V20.7891C13.4922 20.3881 13.5277 19.9857 13.5979 19.5932C13.6928 19.0621 13.3392 18.5548 12.8082 18.4602C12.2776 18.3652 11.7699 18.7188 11.6752 19.2498C11.5848 19.7557 11.5391 20.2737 11.5391 20.7891V61.0234C11.5391 61.5628 11.9762 62 12.5156 62H28.1406C28.68 62 29.1172 61.5628 29.1172 61.0234V32.5082H42.7891V33.4848C42.7891 35.1003 44.1032 36.4144 45.7188 36.4144H49.625C51.2401 36.4144 52.5547 35.1003 52.5547 33.4848V32.5082H55.4844C56.0238 32.5082 56.4609 32.071 56.4609 31.5316V25.6723C56.4609 25.1329 56.0238 24.6957 55.4844 24.6957ZM29.1172 13.9531H34.9766V16.8828H29.1172V13.9531ZM27.1641 60.0469H13.4922V32.5082H27.1641V60.0469ZM50.6016 33.4848C50.6016 34.023 50.1633 34.4613 49.625 34.4613H45.7188C45.1801 34.4613 44.7422 34.023 44.7422 33.4848V32.5082H50.6016V33.4848ZM54.5078 30.5551H13.4922V26.6488H54.5078V30.5551Z" fill="black"/>
<path d="M48.3932 40.6392C48.2082 40.4363 47.9462 40.3207 47.6719 40.3207C47.3972 40.3207 47.1355 40.4363 46.9501 40.6392C46.8819 40.714 46.8067 40.796 46.7258 40.8837C45.4479 42.2708 42.7891 45.157 42.7891 47.9016C42.7891 50.5937 44.9795 52.7844 47.6719 52.7844C50.3643 52.7844 52.5547 50.5937 52.5547 47.9016C52.5547 45.157 49.8958 42.2711 48.6179 40.8841C48.537 40.796 48.4615 40.714 48.3932 40.6392ZM47.6719 50.8313C46.0564 50.8313 44.7422 49.5168 44.7422 47.9016C44.7422 46.1923 46.5248 44.0217 47.6719 42.7445C48.8186 44.0217 50.6016 46.1919 50.6016 47.9016C50.6016 49.5168 49.287 50.8313 47.6719 50.8313Z" fill="black"/>
<path d="M14.756 16.3034C15.0059 16.3034 15.2557 16.208 15.4465 16.0173L15.4469 16.0169C15.8283 15.6355 15.8279 15.0175 15.4469 14.636C15.0654 14.2545 14.4466 14.2549 14.0652 14.6364C13.6841 15.0175 13.6841 15.6358 14.0652 16.0173C14.2559 16.208 14.5062 16.3034 14.756 16.3034Z" fill="black"/>
<path d="M24.2344 48.3289C24.7738 48.3289 25.2109 47.8913 25.2109 47.3523V47.3515C25.2109 46.8121 24.7738 46.3754 24.2344 46.3754C23.695 46.3754 23.2578 46.8129 23.2578 47.3523C23.2578 47.8913 23.695 48.3289 24.2344 48.3289Z" fill="black"/>
<path d="M24.2344 58.0937C24.7738 58.0937 25.2109 57.6566 25.2109 57.1172V51.7465C25.2109 51.2071 24.7738 50.7699 24.2344 50.7699C23.695 50.7699 23.2578 51.2071 23.2578 51.7465V57.1172C23.2578 57.6562 23.695 58.0937 24.2344 58.0937Z" fill="black"/>
</svg>
