<svg width="50" height="61" viewBox="0 0 50 61" fill="none" xmlns="http://www.w3.org/2000/svg">
<circle cx="25.5" cy="18.5" r="18.5" fill="#295BA0"/>
<path d="M37.6953 36C37.6953 31.1122 34.9182 26.8611 30.8594 24.7405V20.7656C31.3988 20.7656 31.8359 20.3285 31.8359 19.7891V15.8828C31.8359 15.3438 31.3988 14.9062 30.8594 14.9062H29.8828V11.9766C29.8828 11.4372 29.4453 11 28.9062 11C28.3669 11 27.9297 11.4372 27.9297 11.9766V14.9062H22.0703V11.9766C22.0703 11.4372 21.6331 11 21.0938 11C20.5544 11 20.1172 11.4372 20.1172 11.9766V14.9062H19.1406C18.6012 14.9062 18.1641 15.3438 18.1641 15.8828V19.7891C18.1641 20.3285 18.6012 20.7656 19.1406 20.7656V24.7444C18.7397 25.0171 18.594 25.5508 18.8198 25.994C19.0643 26.4747 19.6526 26.6658 20.1328 26.4213C21.6492 25.6492 23.2864 25.2578 25 25.2578C30.9231 25.2578 35.7422 30.0769 35.7422 36C35.7422 41.9231 30.9231 46.7422 25 46.7422C19.0769 46.7422 14.2578 41.9231 14.2578 36C14.2578 34.8007 14.4543 33.6223 14.8418 32.4981C15.0177 31.9881 14.7469 31.4323 14.2368 31.2564C13.7272 31.0809 13.171 31.3518 12.9955 31.8614C12.537 33.1912 12.3047 34.5836 12.3047 36C12.3047 40.8882 15.0818 45.1389 19.1406 47.2595V51.2344C18.6012 51.2344 18.1641 51.6715 18.1641 52.2109V56.1172C18.1641 56.6562 18.6012 57.0938 19.1406 57.0938H20.1172V60.0234C20.1172 60.5628 20.5544 61 21.0938 61C21.6331 61 22.0703 60.5628 22.0703 60.0234V57.0938H27.9297V60.0234C27.9297 60.5628 28.3669 61 28.9062 61C29.4453 61 29.8828 60.5628 29.8828 60.0234V57.0938H30.8594C31.3988 57.0938 31.8359 56.6562 31.8359 56.1172V52.2109C31.8359 51.6715 31.3988 51.2344 30.8594 51.2344V47.2595C34.9182 45.1389 37.6953 40.8878 37.6953 36ZM20.1172 16.8594H29.8828V18.8125H20.1172V16.8594ZM21.0938 23.9166V20.7656H28.9062V23.9204C27.6749 23.5214 26.3626 23.3047 25 23.3047C23.653 23.3047 22.3461 23.5107 21.0938 23.9166ZM29.8828 55.1406H20.1172V53.1875H29.8828V55.1406ZM28.9062 51.2344H21.0938V48.0796C22.3248 48.4786 23.6374 48.6953 25 48.6953C26.3626 48.6953 27.6749 48.4786 28.9062 48.0796V51.2344Z" fill="white"/>
<path d="M15.5361 29.0557C15.7184 29.2079 15.9401 29.2819 16.1606 29.2819C16.4406 29.2819 16.7186 29.1621 16.9117 28.9302C17.2569 28.5163 17.2008 27.9002 16.7866 27.555C16.3727 27.2101 15.757 27.2658 15.4114 27.6801L15.4106 27.6805C15.0654 28.0952 15.1218 28.7105 15.5361 29.0557Z" fill="white"/>
<path d="M24.5117 37.4042L18.9346 40.6242C18.673 40.7752 18.496 41.0388 18.4551 41.3379C18.4143 41.637 18.5143 41.9383 18.7256 42.1539C19.1303 42.5662 19.5774 42.9408 20.055 43.2662C20.5006 43.5703 21.1083 43.4554 21.4119 43.0095C21.7159 42.5639 21.6011 41.9566 21.1556 41.6526C21.1411 41.6427 21.1262 41.6328 21.1117 41.6225L25 39.3775L28.8883 41.6225C28.8738 41.6328 28.859 41.6427 28.8441 41.653C28.3985 41.9566 28.2837 42.5643 28.5874 43.0099C28.7766 43.2872 29.0829 43.4364 29.3949 43.4364C29.5845 43.4364 29.776 43.3814 29.9442 43.2666C30.4222 42.9408 30.8697 42.5666 31.2744 42.1539C31.4861 41.9383 31.5857 41.637 31.5449 41.3379C31.5041 41.0388 31.3271 40.7752 31.0658 40.6242L25.4883 37.4042C25.1862 37.2299 24.8139 37.2299 24.5117 37.4042Z" fill="white"/>
<path d="M32.0393 38.9419C32.1899 39.0289 32.3586 39.0727 32.5275 39.0727C32.6527 39.0727 32.7782 39.0487 32.8972 39.0002C33.1768 38.8858 33.3878 38.6485 33.4686 38.3579C33.6811 37.5926 33.7891 36.7996 33.7891 36C33.7891 31.9873 31.078 28.487 27.1965 27.4879C26.9047 27.4127 26.5934 27.4768 26.3546 27.6618C26.1162 27.8468 25.9766 28.1318 25.9766 28.4335V34.8777C25.9766 35.2264 26.1627 35.5491 26.4648 35.7234L32.0393 38.9419ZM27.9297 29.8202C30.2807 30.9326 31.8359 33.319 31.8359 36C31.8359 36.1861 31.8283 36.3715 31.8134 36.5562L27.9297 34.3139V29.8202Z" fill="white"/>
<path d="M23.645 27.6619C23.4066 27.4769 23.0957 27.4124 22.8035 27.4879C18.9217 28.487 16.2109 31.9874 16.2109 36C16.2109 36.7996 16.3189 37.5931 16.5314 38.3579C16.6122 38.649 16.8232 38.8862 17.1028 39.0003C17.2218 39.0487 17.3473 39.0728 17.4725 39.0728C17.6414 39.0728 17.8101 39.0289 17.9607 38.9419L23.5352 35.7235C23.8373 35.5491 24.0234 35.2268 24.0234 34.8778V28.4336C24.0234 28.1318 23.8838 27.8469 23.645 27.6619ZM22.0703 34.3139L18.1866 36.5562C18.1717 36.3716 18.1641 36.1862 18.1641 36C18.1641 33.3195 19.7189 30.9326 22.0703 29.8202V34.3139Z" fill="white"/>
<path d="M24.9993 42.8359C24.4599 42.8359 24.0231 43.2731 24.0231 43.8125C24.0231 44.3519 24.4606 44.7891 25 44.7891C25.5394 44.7891 25.9766 44.3519 25.9766 43.8125C25.9766 43.2731 25.539 42.8359 25 42.8359H24.9993Z" fill="white"/>
</svg>
