<svg width="18" height="18" viewBox="0 0 18 18" fill="none" xmlns="http://www.w3.org/2000/svg">
<path d="M4.27124 7.88281C5.64624 10.5469 7.66577 12.5664 10.3298 13.9414L12.3494 11.9219C12.6358 11.6354 12.9509 11.5638 13.2947 11.707C14.3259 12.0508 15.4145 12.2227 16.5603 12.2227C16.8181 12.2227 17.033 12.3086 17.2048 12.4805C17.3767 12.6523 17.4626 12.8672 17.4626 13.125V16.3477C17.4626 16.6055 17.3767 16.8203 17.2048 16.9922C17.033 17.1641 16.8181 17.25 16.5603 17.25C12.2634 17.25 8.58244 15.7318 5.51733 12.6953C2.48088 9.63021 0.962646 5.94922 0.962646 1.65234C0.962646 1.39453 1.04858 1.17969 1.22046 1.00781C1.39233 0.835938 1.60718 0.75 1.86499 0.75H5.08765C5.34546 0.75 5.5603 0.835938 5.73218 1.00781C5.90405 1.17969 5.98999 1.39453 5.98999 1.65234C5.98999 2.79818 6.16187 3.88672 6.50562 4.91797C6.6202 5.29036 6.54858 5.60547 6.29077 5.86328L4.27124 7.88281Z" fill="#989898"/>
</svg>
